<?xml version="1.0" encoding="utf-8"?>
<!-- Generator: Adobe Illustrator 27.5.0, SVG Export Plug-In . SVG Version: 6.00 Build 0)  -->
<svg version="1.1" id="Layer_1" xmlns="http://www.w3.org/2000/svg" xmlns:xlink="http://www.w3.org/1999/xlink" x="0px" y="0px"
	 viewBox="0 0 237 133" style="enable-background:new 0 0 237 133;" xml:space="preserve">
<style type="text/css">
	.st0{fill:#876FEC;}
</style>
<path class="st0" d="M171.6,46.2c0.7,1.9,0.1,4.1-1.4,5.5l-9.6,8.8c0.2,1.8,0.4,3.7,0.4,5.7c0,1.9-0.1,3.8-0.4,5.7l9.6,8.8
	c1.5,1.4,2.1,3.5,1.4,5.5c-1,2.6-2.2,5.2-3.5,7.6l-1,1.8c-1.5,2.4-3.1,4.8-4.9,6.9c-1.3,1.6-3.5,2.1-5.5,1.5l-12.4-3.9
	c-3,2.3-6.3,4.2-9.8,5.7l-2.8,12.7c-0.4,2-2,3.6-4.1,4c-3.1,0.5-6.2,0.8-9.5,0.8c-3.2,0-6.4-0.3-9.5-0.8c-2-0.3-3.6-1.9-4.1-4
	l-2.8-12.7c-3.5-1.4-6.8-3.4-9.8-5.7l-12.4,4c-2,0.6-4.1,0.1-5.5-1.5c-1.8-2.2-3.5-4.5-4.9-6.9l-1-1.8c-1.4-2.4-2.5-5-3.5-7.6
	c-0.7-1.9-0.1-4.1,1.4-5.5l9.6-8.8c-0.2-1.9-0.4-3.8-0.4-5.7c0-1.9,0.1-3.8,0.4-5.7l-9.6-8.8c-1.5-1.4-2.1-3.5-1.4-5.5
	c1-2.6,2.2-5.2,3.5-7.6l1-1.8c1.5-2.4,3.1-4.8,4.9-6.9c1.3-1.6,3.5-2.1,5.5-1.5l12.4,3.9c3-2.3,6.3-4.2,9.8-5.7l2.8-12.7
	c0.4-2,2-3.6,4.1-4c3.1-0.5,6.2-0.8,9.5-0.8c3.2,0,6.4,0.3,9.5,0.8c2,0.3,3.6,1.9,4.1,4l2.8,12.7c3.5,1.4,6.8,3.4,9.8,5.7l12.4-3.9
	c2-0.6,4.1-0.1,5.5,1.5c1.8,2.2,3.5,4.5,4.9,6.9l1,1.8C169.5,40.9,170.7,43.5,171.6,46.2L171.6,46.2z M118.2,83.9
	c9.8,0,17.8-8,17.8-17.8s-8-17.8-17.8-17.8s-17.8,8-17.8,17.8S108.4,83.9,118.2,83.9z"/>
</svg>
